<svg width="375" height="812" fill="none" xmlns="http://www.w3.org/2000/svg">
    <path fill="url(#a)" d="M0 0h375v812H0z"/>
    <path d="m100.344 762-2.407-8.182h1.646l1.603 6.009h.08l1.609-6.009h1.646l1.598 5.982h.08l1.592-5.982h1.646L107.035 762h-1.625l-1.662-5.907h-.122L101.964 762h-1.62Zm12.528 0-2.407-8.182h1.646l1.603 6.009h.08l1.609-6.009h1.646l1.598 5.982h.079l1.593-5.982h1.646L119.563 762h-1.625l-1.662-5.907h-.122L114.492 762h-1.62Zm12.528 0-2.407-8.182h1.646l1.603 6.009h.08l1.609-6.009h1.645l1.598 5.982h.08l1.593-5.982h1.646L132.091 762h-1.625l-1.662-5.907h-.122L127.02 762h-1.62Zm10.691.101c-.292 0-.542-.103-.752-.309a1.03 1.03 0 0 1-.314-.756c0-.291.105-.54.314-.746.21-.209.46-.314.752-.314.291 0 .541.105.751.314.209.206.314.455.314.746 0 .195-.05.375-.149.538-.096.16-.224.288-.384.383-.16.096-.337.144-.532.144Zm6.411.059c-.66 0-1.25-.169-1.768-.506-.515-.341-.92-.826-1.215-1.454-.291-.633-.437-1.391-.437-2.275 0-.884.148-1.641.442-2.269.299-.629.707-1.11 1.226-1.444a3.19 3.19 0 0 1 1.763-.5c.508 0 .916.085 1.225.255.312.167.554.363.724.586.174.224.309.421.405.592h.096v-4.054h1.593V762H145v-1.273h-.133a4.243 4.243 0 0 1-.415.597 2.314 2.314 0 0 1-.735.585c-.313.167-.718.251-1.215.251Zm.352-1.359c.458 0 .845-.12 1.161-.362.319-.245.561-.584.724-1.017.167-.433.251-.938.251-1.513 0-.568-.082-1.065-.245-1.491-.164-.427-.403-.759-.719-.996-.317-.238-.707-.357-1.172-.357-.48 0-.879.124-1.199.373a2.274 2.274 0 0 0-.724 1.017c-.16.43-.24.914-.24 1.454a4.2 4.2 0 0 0 .245 1.476c.163.436.405.783.724 1.038.324.252.721.378 1.194.378Zm6.125 1.199v-8.182h1.593V762h-1.593Zm.804-9.444c-.277 0-.515-.093-.714-.277a.901.901 0 0 1-.293-.671c0-.263.098-.487.293-.672.199-.188.437-.282.714-.282.277 0 .513.094.709.282a.884.884 0 0 1 .298.672.892.892 0 0 1-.298.671 1 1 0 0 1-.709.277Zm6.608 9.609c-.807 0-1.501-.172-2.083-.517a3.506 3.506 0 0 1-1.343-1.464c-.312-.633-.468-1.373-.468-2.222 0-.838.156-1.576.468-2.216a3.639 3.639 0 0 1 1.321-1.496c.569-.359 1.233-.538 1.993-.538.461 0 .909.076 1.342.229.433.152.822.392 1.167.719.344.327.616.751.815 1.273.198.518.298 1.149.298 1.891v.564h-6.504v-1.193h4.943c0-.419-.085-.79-.256-1.113a1.925 1.925 0 0 0-.719-.772c-.305-.189-.664-.283-1.076-.283-.447 0-.838.11-1.172.331-.33.216-.586.5-.767.852a2.466 2.466 0 0 0-.266 1.134v.933c0 .547.096 1.012.288 1.395.195.384.467.677.815.879.348.199.754.298 1.219.298.302 0 .578-.042.826-.127a1.71 1.71 0 0 0 1.06-1.039l1.508.272a2.743 2.743 0 0 1-.65 1.166c-.309.33-.698.588-1.167.772-.465.182-.996.272-1.592.272Zm5.427-.165v-8.182h1.529v1.332h.101c.17-.451.449-.803.836-1.055.387-.256.851-.383 1.39-.383.547 0 1.005.127 1.375.383.373.256.648.607.825 1.055h.086c.195-.437.506-.785.932-1.044.426-.263.934-.394 1.523-.394.742 0 1.348.232 1.817.697.472.466.708 1.167.708 2.104V762h-1.593v-5.337c0-.554-.151-.956-.452-1.204a1.647 1.647 0 0 0-1.082-.373c-.518 0-.921.16-1.209.479-.287.316-.431.723-.431 1.22V762h-1.588v-5.439c0-.443-.138-.8-.415-1.07-.277-.27-.638-.405-1.081-.405-.302 0-.581.08-.837.24a1.751 1.751 0 0 0-.612.655c-.153.28-.229.605-.229.975V762h-1.593Zm16.47.16c-.661 0-1.25-.169-1.769-.506-.515-.341-.92-.826-1.214-1.454-.292-.633-.437-1.391-.437-2.275 0-.884.147-1.641.442-2.269.298-.629.707-1.11 1.225-1.444a3.193 3.193 0 0 1 1.763-.5c.508 0 .916.085 1.225.255.313.167.554.363.725.586.174.224.309.421.405.592h.096v-4.054h1.592V762h-1.555v-1.273h-.133a4.26 4.26 0 0 1-.416.597 2.292 2.292 0 0 1-.735.585c-.312.167-.717.251-1.214.251Zm.351-1.359c.458 0 .845-.12 1.161-.362.32-.245.561-.584.725-1.017.167-.433.25-.938.25-1.513 0-.568-.081-1.065-.245-1.491-.163-.427-.403-.759-.719-.996-.316-.238-.707-.357-1.172-.357-.479 0-.879.124-1.198.373-.32.248-.561.587-.725 1.017-.16.43-.239.914-.239 1.454 0 .547.081 1.039.245 1.476.163.436.404.783.724 1.038.323.252.721.378 1.193.378Zm8.506 1.38c-.518 0-.987-.096-1.406-.288a2.367 2.367 0 0 1-.996-.846c-.241-.37-.362-.823-.362-1.359 0-.461.089-.841.266-1.14.178-.298.417-.534.719-.708.302-.174.64-.306 1.012-.394a9.987 9.987 0 0 1 1.14-.203l1.194-.138c.305-.039.527-.101.665-.187.139-.085.208-.223.208-.415v-.037c0-.466-.131-.826-.394-1.082-.259-.255-.646-.383-1.161-.383-.537 0-.959.119-1.268.357-.305.234-.517.495-.634.783l-1.497-.341c.178-.497.437-.899.778-1.204a3.14 3.14 0 0 1 1.188-.671 4.636 4.636 0 0 1 1.411-.213c.327 0 .673.039 1.039.117.369.074.714.213 1.033.415.324.203.588.492.794.869.206.372.309.857.309 1.454V762h-1.555v-1.119h-.064a2.273 2.273 0 0 1-.464.608c-.206.198-.47.364-.793.495-.323.131-.711.197-1.162.197Zm.347-1.278c.44 0 .816-.087 1.129-.261a1.83 1.83 0 0 0 .719-.682c.167-.284.25-.588.25-.911v-1.055c-.056.057-.166.11-.33.16-.16.046-.343.087-.548.123-.206.032-.407.062-.602.09a54.56 54.56 0 0 0-.49.064 3.955 3.955 0 0 0-.847.197 1.46 1.46 0 0 0-.608.4c-.149.17-.223.397-.223.682 0 .394.145.692.436.894.292.199.663.299 1.114.299Zm9.409 1.262c-.767 0-1.437-.176-2.008-.527a3.56 3.56 0 0 1-1.332-1.476c-.316-.632-.474-1.37-.474-2.216 0-.848.158-1.591.474-2.226a3.549 3.549 0 0 1 1.332-1.481c.571-.352 1.241-.527 2.008-.527.767 0 1.436.175 2.008.527a3.549 3.549 0 0 1 1.332 1.481c.316.635.474 1.378.474 2.226 0 .846-.158 1.584-.474 2.216a3.56 3.56 0 0 1-1.332 1.476c-.572.351-1.241.527-2.008.527Zm.005-1.337c.497 0 .909-.131 1.236-.394.327-.263.568-.613.724-1.049.16-.437.24-.918.24-1.444 0-.522-.08-1.001-.24-1.438a2.333 2.333 0 0 0-.724-1.06c-.327-.267-.739-.4-1.236-.4-.501 0-.916.133-1.246.4-.327.266-.57.619-.73 1.06a4.248 4.248 0 0 0-.234 1.438c0 .526.078 1.007.234 1.444.16.436.403.786.73 1.049.33.263.745.394 1.246.394Zm9.183 1.337c-.792 0-1.474-.179-2.046-.538a3.557 3.557 0 0 1-1.31-1.497c-.305-.635-.458-1.363-.458-2.184 0-.831.156-1.564.469-2.2a3.583 3.583 0 0 1 1.321-1.496c.568-.359 1.237-.538 2.008-.538.621 0 1.175.115 1.662.346a2.98 2.98 0 0 1 1.177.959c.302.412.481.893.538 1.443h-1.55a1.861 1.861 0 0 0-.586-.991c-.302-.277-.707-.415-1.214-.415-.444 0-.833.117-1.167.352-.33.23-.588.561-.772.99-.185.426-.277.931-.277 1.513 0 .597.09 1.112.271 1.545.181.433.437.769.767 1.007.334.238.727.356 1.178.356.301 0 .575-.055.82-.165.248-.113.456-.275.623-.484.171-.21.29-.462.357-.757h1.55a3.009 3.009 0 0 1-.517 1.417 2.965 2.965 0 0 1-1.156.98c-.479.238-1.042.357-1.688.357Zm6.807-5.023V762h-1.593v-10.909h1.572v4.059h.101c.192-.44.485-.79.879-1.05.394-.259.909-.388 1.545-.388.561 0 1.051.115 1.47.346.422.231.749.575.98 1.033.234.455.351 1.023.351 1.705V762h-1.592v-5.012c0-.601-.155-1.066-.464-1.396-.309-.334-.738-.501-1.289-.501-.376 0-.714.08-1.012.24-.295.16-.527.394-.698.703-.167.305-.25.675-.25 1.108Zm7.581 4.858v-8.182h1.592V762h-1.592Zm.804-9.444c-.277 0-.515-.093-.714-.277a.901.901 0 0 1-.293-.671c0-.263.098-.487.293-.672.199-.188.437-.282.714-.282.277 0 .513.094.709.282a.887.887 0 0 1 .298.672c0 .259-.1.483-.298.671a1 1 0 0 1-.709.277Zm6.607 9.609c-.806 0-1.5-.172-2.082-.517a3.506 3.506 0 0 1-1.343-1.464c-.312-.633-.468-1.373-.468-2.222 0-.838.156-1.576.468-2.216a3.639 3.639 0 0 1 1.321-1.496c.568-.359 1.233-.538 1.992-.538.462 0 .91.076 1.343.229.433.152.822.392 1.166.719.345.327.616.751.815 1.273.199.518.299 1.149.299 1.891v.564h-6.504v-1.193h4.943c0-.419-.085-.79-.256-1.113a1.925 1.925 0 0 0-.719-.772c-.305-.189-.664-.283-1.076-.283-.447 0-.838.11-1.172.331-.33.216-.586.5-.767.852a2.466 2.466 0 0 0-.266 1.134v.933c0 .547.096 1.012.288 1.395.195.384.467.677.815.879.348.199.754.298 1.219.298.302 0 .577-.042.826-.127a1.71 1.71 0 0 0 1.06-1.039l1.507.272a2.73 2.73 0 0 1-.649 1.166c-.309.33-.698.588-1.167.772-.465.182-.996.272-1.593.272Zm10.611-3.558v-4.789h1.598V762h-1.566v-1.417h-.086c-.188.437-.49.801-.905 1.092-.412.288-.925.432-1.54.432-.525 0-.99-.116-1.395-.347a2.432 2.432 0 0 1-.948-1.038c-.228-.459-.341-1.025-.341-1.7v-5.204h1.592v5.013c0 .557.155 1.001.464 1.331.309.331.71.496 1.204.496.298 0 .595-.075.889-.224.299-.149.545-.375.741-.677.199-.301.296-.685.293-1.15Zm4.937 3.494c-.291 0-.542-.103-.751-.309a1.027 1.027 0 0 1-.314-.756c0-.291.104-.54.314-.746.209-.209.46-.314.751-.314s.542.105.751.314c.21.206.314.455.314.746 0 .195-.049.375-.149.538a1.09 1.09 0 0 1-.383.383c-.16.096-.338.144-.533.144Zm6.795.064c-.792 0-1.474-.179-2.045-.538a3.559 3.559 0 0 1-1.311-1.497c-.305-.635-.458-1.363-.458-2.184 0-.831.156-1.564.469-2.2a3.583 3.583 0 0 1 1.321-1.496c.568-.359 1.238-.538 2.008-.538.622 0 1.176.115 1.662.346.487.227.879.547 1.177.959.302.412.481.893.538 1.443h-1.55a1.855 1.855 0 0 0-.586-.991c-.302-.277-.706-.415-1.214-.415-.444 0-.833.117-1.167.352-.33.23-.587.561-.772.99-.185.426-.277.931-.277 1.513 0 .597.09 1.112.272 1.545.181.433.436.769.767 1.007.333.238.726.356 1.177.356.302 0 .575-.055.82-.165.249-.113.456-.275.623-.484.171-.21.29-.462.357-.757h1.55a3.019 3.019 0 0 1-.516 1.417 2.972 2.972 0 0 1-1.156.98c-.48.238-1.043.357-1.689.357Zm8.661 0c-.767 0-1.437-.176-2.008-.527a3.56 3.56 0 0 1-1.332-1.476c-.316-.632-.474-1.37-.474-2.216 0-.848.158-1.591.474-2.226a3.549 3.549 0 0 1 1.332-1.481c.571-.352 1.241-.527 2.008-.527.767 0 1.436.175 2.008.527a3.549 3.549 0 0 1 1.332 1.481c.316.635.474 1.378.474 2.226 0 .846-.158 1.584-.474 2.216a3.56 3.56 0 0 1-1.332 1.476c-.572.351-1.241.527-2.008.527Zm.005-1.337c.497 0 .909-.131 1.236-.394.327-.263.568-.613.724-1.049.16-.437.24-.918.24-1.444 0-.522-.08-1.001-.24-1.438a2.333 2.333 0 0 0-.724-1.06c-.327-.267-.739-.4-1.236-.4-.501 0-.916.133-1.246.4-.327.266-.57.619-.73 1.06a4.248 4.248 0 0 0-.234 1.438c0 .526.078 1.007.234 1.444.16.436.403.786.73 1.049.33.263.745.394 1.246.394Zm5.737 1.172v-8.182h1.528v1.332h.102c.17-.451.449-.803.836-1.055.387-.256.85-.383 1.39-.383.547 0 1.005.127 1.374.383.373.256.648.607.826 1.055h.085c.196-.437.506-.785.932-1.044.427-.263.934-.394 1.524-.394.742 0 1.348.232 1.816.697.473.466.709 1.167.709 2.104V762h-1.593v-5.337c0-.554-.151-.956-.453-1.204a1.644 1.644 0 0 0-1.081-.373c-.519 0-.922.16-1.209.479-.288.316-.432.723-.432 1.22V762h-1.587v-5.439c0-.443-.139-.8-.416-1.07-.277-.27-.637-.405-1.081-.405-.302 0-.58.08-.836.24a1.761 1.761 0 0 0-.613.655c-.152.28-.229.605-.229.975V762h-1.592ZM92.22 321.723h2.74l3.67 8.959h.146l3.67-8.959h2.741v12.364h-2.149v-8.494h-.115l-3.417 8.458H97.9l-3.417-8.476h-.114v8.512h-2.15v-12.364Zm25.988-.7h1.582c0 1.143-.261 2.03-.785 2.662-.523.632-1.33.948-2.42.948v-1.28c.595 0 1.014-.205 1.255-.616.246-.41.368-.982.368-1.714Zm.465 6.882c0 1.332-.249 2.473-.748 3.423-.495.946-1.171 1.67-2.029 2.173-.853.503-1.821.755-2.903.755-1.083 0-2.053-.252-2.91-.755-.853-.507-1.53-1.233-2.029-2.179-.495-.95-.742-2.089-.742-3.417 0-1.332.247-2.471.742-3.417.499-.95 1.176-1.676 2.029-2.179.857-.503 1.827-.755 2.91-.755 1.082 0 2.05.252 2.903.755.858.503 1.534 1.229 2.029 2.179.499.946.748 2.085.748 3.417Zm-2.251 0c0-.938-.147-1.728-.441-2.372-.29-.648-.692-1.137-1.208-1.467-.515-.334-1.108-.501-1.78-.501-.673 0-1.266.167-1.781.501-.516.33-.92.819-1.214 1.467-.29.644-.434 1.434-.434 2.372s.144 1.731.434 2.379c.294.644.698 1.133 1.214 1.467.515.33 1.108.495 1.781.495.672 0 1.265-.165 1.78-.495.516-.334.918-.823 1.208-1.467.294-.648.441-1.441.441-2.379Zm-2.59-7.486h-1.667l-.084-1.159c.427-.016.728-.07.906-.163.177-.096.263-.229.259-.398.004-.218-.113-.368-.35-.453a2.639 2.639 0 0 0-.881-.127l.054-1.08c.998 0 1.755.145 2.27.434.515.29.77.684.766 1.184.004.382-.126.668-.392.857a2.052 2.052 0 0 1-.881.35v.555Zm22.207 5.476h-2.258a2.827 2.827 0 0 0-.356-.984 2.681 2.681 0 0 0-.646-.737 2.69 2.69 0 0 0-.882-.452 3.426 3.426 0 0 0-1.056-.157c-.672 0-1.268.169-1.787.507-.519.334-.926.825-1.22 1.473-.293.644-.44 1.43-.44 2.36 0 .946.147 1.743.44 2.391.298.644.705 1.131 1.22 1.461.519.326 1.113.489 1.781.489.37 0 .716-.049 1.038-.145.326-.101.618-.248.875-.441a2.689 2.689 0 0 0 1.033-1.678l2.258.012a4.87 4.87 0 0 1-.55 1.654c-.278.515-.642.97-1.093 1.364-.45.391-.977.697-1.581.918a5.91 5.91 0 0 1-2.01.326c-1.087 0-2.057-.252-2.91-.755-.854-.503-1.526-1.229-2.017-2.179-.491-.95-.736-2.089-.736-3.417 0-1.332.247-2.471.742-3.417.495-.95 1.17-1.676 2.023-2.179.853-.503 1.819-.755 2.898-.755a6.15 6.15 0 0 1 1.919.29 4.919 4.919 0 0 1 1.582.851c.463.37.843.825 1.141 1.365.302.535.499 1.147.592 1.835Zm13.346-4.715h1.575c0 .809-.112 1.497-.338 2.065a2.532 2.532 0 0 1-1.135 1.304c-.531.297-1.253.446-2.167.446v-1.304c.6 0 1.046-.098 1.34-.295.294-.198.487-.483.58-.858.096-.374.145-.827.145-1.358Zm-3.502.543h2.24v8.078c0 .885-.209 1.664-.628 2.336-.414.672-.998 1.197-1.751 1.576-.752.374-1.632.561-2.638.561-1.01 0-1.891-.187-2.644-.561-.753-.379-1.336-.904-1.751-1.576-.414-.672-.621-1.451-.621-2.336v-8.078h2.239v7.891c0 .515.113.974.338 1.376.23.402.552.718.966.948.415.225.906.338 1.473.338.568 0 1.059-.113 1.473-.338a2.41 2.41 0 0 0 .966-.948 2.76 2.76 0 0 0 .338-1.376v-7.891Zm-1.938-1.304h-1.666l-.084-1.159c.426-.016.728-.07.905-.163.177-.096.264-.229.26-.398.004-.218-.113-.368-.35-.453a2.645 2.645 0 0 0-.882-.127l.055-1.08c.998 0 1.754.145 2.27.434.515.29.77.684.766 1.184.004.382-.127.668-.392.857-.266.185-.56.302-.882.35v.555Zm8.997 13.668h-2.391l4.353-12.364h2.765l4.359 12.364h-2.391l-3.302-9.828h-.097l-3.296 9.828Zm.078-4.848h6.52v1.799h-6.52v-1.799Zm14.309-5.638v-1.878h9.865v1.878h-3.822v10.486h-2.221v-10.486h-3.822Zm11.766 10.486v-12.364h2.24v5.234h5.729v-5.234h2.246v12.364h-2.246v-5.252h-5.729v5.252h-2.24Zm14.239 0h-2.391l4.353-12.364h2.764l4.359 12.364h-2.391l-3.302-9.828h-.096l-3.296 9.828Zm.078-4.848h6.52v1.799h-6.52v-1.799Zm2.469-8.735-1.853-2.759h2.143l1.346 2.759h-1.636Zm18.327 1.219v12.364h-1.992l-5.826-8.422h-.103v8.422h-2.239v-12.364h2.004l5.819 8.428h.109v-8.428h2.228Zm2.44 12.364v-12.364h2.24v5.234h5.729v-5.234h2.246v12.364h-2.246v-5.252h-5.729v5.252h-2.24Zm27.45-8.192h-2.258a2.807 2.807 0 0 0-.356-.984 2.649 2.649 0 0 0-.646-.737 2.676 2.676 0 0 0-.881-.452 3.428 3.428 0 0 0-1.057-.157c-.672 0-1.267.169-1.787.507-.519.334-.925.825-1.219 1.473-.294.644-.441 1.43-.441 2.36 0 .946.147 1.743.441 2.391.298.644.704 1.131 1.219 1.461.52.326 1.113.489 1.781.489.371 0 .717-.049 1.039-.145.326-.101.617-.248.875-.441a2.688 2.688 0 0 0 1.032-1.678l2.258.012a4.868 4.868 0 0 1-.549 1.654c-.278.515-.642.97-1.093 1.364a5.022 5.022 0 0 1-1.582.918 5.902 5.902 0 0 1-2.01.326c-1.087 0-2.057-.252-2.91-.755-.853-.503-1.525-1.229-2.016-2.179-.491-.95-.737-2.089-.737-3.417 0-1.332.248-2.471.743-3.417.495-.95 1.169-1.676 2.022-2.179.854-.503 1.819-.755 2.898-.755a6.16 6.16 0 0 1 1.92.29 4.93 4.93 0 0 1 1.582.851c.462.37.843.825 1.14 1.365.302.535.5 1.147.592 1.835Zm13.099 2.01c0 1.332-.25 2.473-.749 3.423-.495.946-1.171 1.67-2.028 2.173-.853.503-1.821.755-2.904.755s-2.053-.252-2.91-.755c-.853-.507-1.529-1.233-2.028-2.179-.495-.95-.743-2.089-.743-3.417 0-1.332.248-2.471.743-3.417.499-.95 1.175-1.676 2.028-2.179.857-.503 1.827-.755 2.91-.755 1.083 0 2.051.252 2.904.755.857.503 1.533 1.229 2.028 2.179.499.946.749 2.085.749 3.417Zm-2.252 0c0-.938-.147-1.728-.441-2.372-.29-.648-.692-1.137-1.207-1.467-.515-.334-1.109-.501-1.781-.501-.672 0-1.266.167-1.781.501-.515.33-.92.819-1.213 1.467-.29.644-.435 1.434-.435 2.372s.145 1.731.435 2.379c.293.644.698 1.133 1.213 1.467.515.33 1.109.495 1.781.495.672 0 1.266-.165 1.781-.495.515-.334.917-.823 1.207-1.467.294-.648.441-1.441.441-2.379Zm-2.204-7.293-1.225-1.545-1.226 1.545h-1.913v-.084l2.288-2.608h1.708l2.282 2.608v.084h-1.914Zm16.733 1.111v12.364h-1.992l-5.825-8.422h-.103v8.422h-2.24v-12.364h2.004l5.82 8.428h.109v-8.428h2.227Zm10.723 3.948a3.186 3.186 0 0 0-.416-.875 2.674 2.674 0 0 0-.628-.67 2.537 2.537 0 0 0-.833-.417 3.495 3.495 0 0 0-1.026-.144c-.664 0-1.256.167-1.775.501-.519.334-.928.825-1.226 1.473-.293.644-.44 1.428-.44 2.354 0 .934.147 1.725.44 2.373.294.648.703 1.141 1.226 1.479.523.334 1.131.501 1.823.501.628 0 1.171-.121 1.63-.363a2.542 2.542 0 0 0 1.068-1.026c.25-.447.375-.97.375-1.569l.507.078h-3.357v-1.751h5.017v1.485c0 1.059-.225 1.974-.676 2.747a4.62 4.62 0 0 1-1.859 1.787c-.789.415-1.695.622-2.717.622-1.139 0-2.139-.256-3-.767-.858-.515-1.528-1.245-2.011-2.191-.479-.95-.718-2.077-.718-3.381 0-.998.141-1.889.422-2.674.286-.785.685-1.451 1.196-1.998a5.083 5.083 0 0 1 1.799-1.256 5.723 5.723 0 0 1 2.245-.435c.685 0 1.323.101 1.914.302a5.071 5.071 0 0 1 1.576.845c.463.367.843.801 1.141 1.304.298.503.493 1.059.585 1.666h-2.282Z" fill="#0D1116"/>
    <g fill="#0D1116">
        <path d="M118.645 295.084v-40.21h16.122c12.518 0 18.776 6.715 18.777 20.146 0 7.498-2.235 12.994-6.706 16.488-1.899 1.474-4.172 2.475-6.818 3.003-1.863.383-4.378.574-7.546.574l-13.829-.001Zm8.298-7.261h6.79c4.154 0 7.115-1.146 8.885-3.439 1.528-2.002 2.292-5.124 2.292-9.364 0-4.04-.652-7.098-1.956-9.172-1.621-2.603-4.35-3.904-8.187-3.904h-7.824v25.879ZM160.249 295.084v-40.21h16.122c12.517 0 18.776 6.715 18.776 20.146 0 7.498-2.235 12.994-6.706 16.488-1.899 1.474-4.171 2.475-6.817 3.003-1.864.383-4.379.574-7.546.574l-13.829-.001Zm8.298-7.261h6.79c4.153 0 7.115-1.146 8.885-3.439 1.528-2.002 2.291-5.124 2.291-9.364 0-4.04-.652-7.098-1.955-9.172-1.622-2.603-4.35-3.904-8.187-3.904h-7.824v25.879ZM237.674 281.271c-.335 4.805-2.263 8.536-5.783 11.193-3.28 2.493-7.443 3.74-12.491 3.739-6.389 0-11.26-2.011-14.613-6.032-3.111-3.713-4.666-8.763-4.666-15.151 0-6.622 1.621-11.755 4.862-15.4 3.446-3.857 8.502-5.786 15.169-5.787 5.031 0 9.063 1.155 12.098 3.465 3.259 2.493 5.048 6.124 5.365 10.892h-8.351c-.727-4.659-3.763-6.988-9.109-6.989-7.597 0-11.396 4.604-11.396 13.813 0 3.986.81 7.161 2.431 9.527 1.918 2.784 4.814 4.177 8.689 4.177 5.327 0 8.494-2.484 9.501-7.453l8.294.006Z" stroke="#0D1116" stroke-width=".2" stroke-miterlimit="10"/>
        <path d="M251.501 211.768a6.247 6.247 0 0 0-6.246 6.635 6.261 6.261 0 0 0 1.099 3.176l-14.051 12.372a6.249 6.249 0 0 0-10.1-.924l-13.291-11.342a6.27 6.27 0 0 0-2.062-5.085 6.267 6.267 0 0 0-4.864-1.564 6.25 6.25 0 0 0-4.408 2.583 6.25 6.25 0 0 0-1.014 5.007l-15.96 13.248a6.265 6.265 0 1 0 1.725 1.763l15.287-12.691a6.259 6.259 0 0 0 8.416 1.598 6.25 6.25 0 0 0 2.126-2.273l12.809 10.93a6.249 6.249 0 0 0 .619 5.201 6.255 6.255 0 0 0 11.557-3.914l14.986-13.197a6.26 6.26 0 0 0 5.567.59 6.247 6.247 0 0 0 3.809-4.101 6.257 6.257 0 0 0-3.204-7.351 6.255 6.255 0 0 0-2.799-.661h-.001Zm-74.419 33.074a3.805 3.805 0 0 1-3.51-2.345 3.792 3.792 0 0 1 .824-4.14 3.792 3.792 0 0 1 5.845.575c.417.625.64 1.36.64 2.111a3.804 3.804 0 0 1-3.799 3.799Zm25.589-19.777a3.796 3.796 0 0 1-3.51-2.346 3.8 3.8 0 0 1 2.768-5.18 3.8 3.8 0 0 1 3.427 6.412 3.81 3.81 0 0 1-2.685 1.114Zm24.247 15.866a3.795 3.795 0 0 1-3.51-2.345 3.794 3.794 0 0 1 2.769-5.18 3.8 3.8 0 0 1 4.54 3.726 3.804 3.804 0 0 1-3.799 3.799Zm24.583-19.107a3.803 3.803 0 0 1-3.511-2.345 3.804 3.804 0 0 1 .824-4.141 3.8 3.8 0 0 1 6.485 2.688 3.801 3.801 0 0 1-3.798 3.798Z"/>
    </g>
    <defs>
        <linearGradient id="a" x1="257" y1="-14.5" x2="76.5" y2="812" gradientUnits="userSpaceOnUse">
            <stop stop-color="#FFD805"/>
            <stop offset="1" stop-color="#FCB62E"/>
        </linearGradient>
    </defs>
</svg>
